# xmcd
#
# Track frame offsets: 
#        182
#        19852
#        40270
#        58532
#        71857
#        98282
#        116070
#        125680
#        145632
#        153282
#        165935
#        183445
#        197745
#        218257
#        229920
#
# Disc length: 3308 seconds
#
# Revision: 3
# Processed by: cddbd v1.4PL0 Copyright (c) Steve Scherf et al.
# Submitted via: ExactAudioCopy v0.90b3
#
DISCID=c30cea0f
DTITLE=Cirque du soleil - Alegria
DYEAR=1999
DGENRE=Soundtrack
TTITLE0=Alegria
TTITLE1=Frac's room - Frac and Train - Frac and Giulietta
TTITLE2=Love leaves someone behind
TTITLE3=Opera - Fleur's trailer
TTITLE4=Mirko - Vai vedrai
TTITLE5=Love leaves someone behind - Chase - Factory
TTITLE6=Hervé
TTITLE7=Child in his eyes
TTITLE8=Wedding
TTITLE9=Irna
TTITLE10=Hervé - Giulietta and Fleur
TTITLE11=Filet - Make-up - Let love live
TTITLE12=Mountain of clothes
TTITLE13=Let love live (instrumental)
TTITLE14=Let love live
EXTD=
EXTT0=
EXTT1=
EXTT2=
EXTT3=
EXTT4=
EXTT5=
EXTT6=
EXTT7=
EXTT8=
EXTT9=
EXTT10=
EXTT11=
EXTT12=
EXTT13=
EXTT14=
PLAYORDER=
